<svg width="30" height="30" viewBox="0 0 30 30" fill="none" xmlns="http://www.w3.org/2000/svg">
<g clip-path="url(#clip0_11_1088)">
<path d="M21.5061 19.9399L26.25 24.6827L24.6827 26.25L19.9399 21.5061C18.1752 22.9208 15.9802 23.6902 13.7185 23.687C8.21589 23.687 3.75 19.2211 3.75 13.7185C3.75 8.21589 8.21589 3.75 13.7185 3.75C19.2211 3.75 23.687 8.21589 23.687 13.7185C23.6902 15.9802 22.9208 18.1752 21.5061 19.9399ZM19.2842 19.1181C20.6899 17.6725 21.4749 15.7348 21.4718 13.7185C21.4718 9.43426 18.0016 5.96522 13.7185 5.96522C9.43426 5.96522 5.96522 9.43426 5.96522 13.7185C5.96522 18.0016 9.43426 21.4718 13.7185 21.4718C15.7348 21.4749 17.6725 20.6899 19.1181 19.2842L19.2842 19.1181Z" fill="black"/>
</g>
<defs>
<clipPath id="clip0_11_1088">
<rect width="30" height="30" fill="white"/>
</clipPath>
</defs>
</svg>
