<svg width="167" height="47" viewBox="0 0 167 47" fill="none" xmlns="http://www.w3.org/2000/svg">
<path fill-rule="evenodd" clip-rule="evenodd" d="M0.564968 20.1547C2.10746 12.385 5.08445 8.42123 10.3479 7.12936C11.2227 6.91494 15.9824 6.83621 29.019 6.82144L46.5158 6.80177L48.1038 10.8262C52.3744 21.6464 53.805 25.1675 54.244 25.8561C54.7441 25.4733 55.8919 23.4968 59.3362 17.5291C62.173 12.6141 64.7252 8.27973 65.0082 7.89762L65.5223 7.20188L83.4022 7.28962C100.852 7.37488 101.316 7.39252 102.678 8.01858C104.66 8.93079 106.331 10.6687 107.448 12.9807C108.354 14.8551 108.413 15.1909 108.413 18.4737C108.413 21.7765 108.358 22.0832 107.42 24.0245C106.874 25.1544 105.705 26.8284 104.822 27.7443L103.216 29.4097L105.427 34.5128C106.643 37.3192 107.638 39.7189 107.638 39.8443C107.638 39.9698 105.178 40.035 102.172 39.9895L96.7071 39.9066L92.2909 29.8742L83.5287 29.7061L83.3546 30.702C83.2589 31.2497 83.0113 33.5108 82.8043 35.7264L82.4282 39.7545H72.6061L72.6176 38.7665C72.6238 38.2232 73.3046 31.2801 74.1305 23.3378C74.9567 15.3955 75.6035 8.86438 75.569 8.82379C75.5053 8.75081 73.4857 12.1615 64.032 28.3101C61.2765 33.016 58.5826 37.3799 58.0447 38.008C56.979 39.2531 55.952 39.8689 54.3927 40.1981L53.385 40.4109L53.385 40.3821C51.0841 40.652 48.321 39.4841 47.4053 37.744C47.1938 37.3422 44.4112 30.5089 41.2216 22.5588C37.4726 13.214 35.3764 8.26543 35.2921 8.56104C35.2204 8.81235 35.0962 9.85783 35.0156 10.8844C34.9353 11.911 34.8115 13.182 34.7406 13.7097L34.6114 14.6686L23.6569 14.8404C13.8245 14.995 12.0038 15.0006 11.4526 15.8399C11.3122 16.0537 11.2542 16.3216 11.167 16.6599C11.0268 17.2048 10.8171 17.9387 10.7009 18.2917L10.4897 18.9329H22.2062C29.4548 18.9329 33.976 19.0186 34.0621 19.1576C34.1389 19.281 34.0234 21.0657 33.805 23.1234L33.4081 26.865H9.76079L9.77109 27.6234C9.79085 29.0936 10.1826 30.4618 10.7039 30.8812C11.1847 31.2678 12.0071 31.2977 22.135 31.2977H33.0483L32.9222 31.9394C32.8529 32.292 32.6843 33.788 32.5474 35.2636C32.4107 36.7395 32.2392 38.4057 32.1664 38.9662L32.0342 39.9858L19.5472 39.8768C7.40099 39.771 7.02381 39.7542 5.73377 39.2577C3.12812 38.2557 1.37121 36.0323 0.457641 32.581C-0.195713 30.1129 -0.140287 23.7085 0.564968 20.1547ZM97.7928 20.9094C99.7254 20.358 100.551 17.8255 99.2954 16.3032C98.7098 15.5935 98.624 15.5841 91.881 15.4931L85.0597 15.4008L84.8556 17.4692C84.7434 18.6065 84.6268 19.8795 84.5964 20.2977L84.5414 21.0578L90.5871 21.1493C94.3203 21.2058 97.0763 21.114 97.7928 20.9094Z" fill="#FBD230"/>
<path d="M115.101 40.4111C114.211 40.4111 113.454 40.1193 112.83 39.5358C112.207 38.9523 111.895 38.2438 111.895 37.4102C111.895 36.5767 112.207 35.8682 112.83 35.2847C113.454 34.7012 114.211 34.4094 115.101 34.4094C115.992 34.4094 116.749 34.7012 117.373 35.2847C117.996 35.8682 118.308 36.5767 118.308 37.4102C118.308 38.2438 117.996 38.9523 117.373 39.5358C116.749 40.1193 115.992 40.4111 115.101 40.4111Z" fill="#FBD230"/>
<path d="M166.931 23.5C166.931 36.4787 156.391 47 143.389 47C130.387 47 119.847 36.4787 119.847 23.5C119.847 10.5213 130.387 0 143.389 0C156.391 0 166.931 10.5213 166.931 23.5Z" fill="#FBD230"/>
<path d="M134.539 34.1041C133.396 34.1041 132.359 33.9318 131.428 33.5873C130.496 33.2255 129.705 32.7001 129.054 32.0111C128.404 31.322 127.903 30.4865 127.551 29.5046C127.2 28.5055 127.024 27.3685 127.024 26.0938V15.1895H131.138V26.3522C131.138 27.4891 131.428 28.428 132.008 29.1687C132.588 29.9094 133.432 30.2798 134.539 30.2798C135.647 30.2798 136.49 29.9094 137.071 29.1687C137.651 28.428 137.941 27.4891 137.941 26.3522V15.1895H142.054V26.0938C142.054 27.2652 141.879 28.3418 141.527 29.3237C141.175 30.3057 140.674 31.1498 140.024 31.856C139.373 32.5623 138.582 33.1136 137.651 33.5098C136.719 33.906 135.682 34.1041 134.539 34.1041Z" fill="#171616"/>
<path d="M144.365 29.6597L153.7 19.0137H144.787V15.1895H158.499V19.2204L149.323 29.8664H158.605V33.6907H144.365V29.6597Z" fill="#171616"/>
</svg>
