<svg xmlns="http://www.w3.org/2000/svg" width="103" height="29" fill="none"><path fill="#000" fill-rule="evenodd" d="M.349 12.436c.951-4.794 2.788-7.24 6.036-8.037.54-.132 3.476-.18 11.52-.19l10.796-.012.98 2.483c2.635 6.676 3.518 8.849 3.789 9.274.308-.236 1.017-1.456 3.142-5.138 1.75-3.033 3.325-5.707 3.5-5.943l.317-.43 11.032.055c10.767.052 11.053.063 11.893.45 1.223.562 2.254 1.635 2.944 3.061.559 1.157.595 1.364.595 3.39 0 2.038-.034 2.227-.612 3.425-.337.697-1.059 1.73-1.604 2.295l-.99 1.027 1.364 3.15c.75 1.73 1.364 3.211 1.364 3.289 0 .077-1.518.117-3.372.09l-3.373-.052-2.725-6.19-5.406-.104-.107.615c-.06.338-.212 1.733-.34 3.1l-.232 2.485H44.8l.007-.61c.003-.335.423-4.619.933-9.52.51-4.9.909-8.93.888-8.955-.04-.045-1.286 2.06-7.119 12.024-1.7 2.904-3.362 5.596-3.694 5.984-.658.768-1.291 1.148-2.253 1.351l-.622.131v-.017c-1.42.166-3.125-.554-3.69-1.628-.13-.248-1.847-4.464-3.815-9.37-2.314-5.766-3.607-8.82-3.659-8.637-.044.155-.12.8-.17 1.434-.05.633-.127 1.418-.17 1.743l-.08.592-6.76.106c-6.066.095-7.19.099-7.53.617-.086.131-.122.297-.176.506-.086.336-.216.789-.287 1.006l-.13.396h7.229c4.472 0 7.262.053 7.315.139.047.076-.024 1.177-.159 2.447l-.245 2.308H6.023l.006.468c.012.907.254 1.752.576 2.01.296.239.804.257 7.053.257h6.734l-.078.396c-.043.218-.147 1.14-.232 2.051a91.31 91.31 0 0 1-.235 2.285l-.081.63-7.705-.068c-7.494-.066-7.727-.076-8.523-.382-1.608-.618-2.692-1.99-3.256-4.12-.403-1.523-.369-5.474.067-7.667Zm59.991.466c1.193-.34 1.702-1.903.927-2.843-.36-.437-.414-.443-4.574-.5l-4.21-.056-.125 1.276c-.07.702-.141 1.487-.16 1.745l-.034.47 3.73.056c2.304.034 4.004-.022 4.446-.148Z" clip-rule="evenodd"/><path fill="#000" d="M71.02 24.934c-.55 0-1.017-.18-1.401-.54a1.73 1.73 0 0 1-.578-1.311c0-.514.193-.952.578-1.312.384-.36.852-.54 1.401-.54.55 0 1.017.18 1.401.54.385.36.578.798.578 1.312s-.193.951-.578 1.311c-.384.36-.851.54-1.4.54ZM103 14.5c0 8.008-6.504 14.5-14.526 14.5s-14.526-6.492-14.526-14.5S80.452 0 88.474 0 103 6.492 103 14.5Z"/><path fill="#fff" d="M83.014 21.043a5.5 5.5 0 0 1-1.92-.32 3.948 3.948 0 0 1-1.465-.972 4.364 4.364 0 0 1-.927-1.546c-.217-.617-.325-1.318-.325-2.105V9.372h2.538v6.887c0 .702.179 1.281.537 1.738.358.457.878.686 1.562.686.683 0 1.204-.229 1.562-.686.358-.457.537-1.036.537-1.738V9.372h2.538V16.1c0 .723-.109 1.387-.326 1.993a4.527 4.527 0 0 1-.927 1.563c-.401.435-.89.775-1.464 1.02-.575.244-1.215.367-1.92.367ZM89.077 18.3l5.76-6.569h-5.5v-2.36h8.46v2.488l-5.662 6.569h5.728v2.36h-8.786V18.3Z"/></svg>