<svg width="30" height="30" viewBox="0 0 30 30" fill="none" xmlns="http://www.w3.org/2000/svg">
<rect width="30" height="30" rx="5" fill="#C4C4C4"/>
<rect width="30" height="30" rx="5" fill="#1E96C8"/>
<path d="M5.27186 14.5121C7.11332 13.5596 9.16887 12.7646 11.0895 11.9655C14.3937 10.6566 17.711 9.37045 21.0618 8.17305C21.7137 7.96904 22.8851 7.76955 23 8.67684C22.9371 9.96116 22.6783 11.2379 22.5009 12.5147C22.0505 15.3225 21.5298 18.1207 21.0221 20.9192C20.8472 21.8515 19.6038 22.334 18.8081 21.7374C16.8961 20.5245 14.9693 19.3234 13.0816 18.0824C12.4633 17.4923 13.0367 16.6449 13.5889 16.2236C15.1638 14.766 16.8339 13.5277 18.3264 11.9949C18.7291 11.0819 17.5395 11.8513 17.1471 12.0871C14.9911 13.4824 12.8879 14.9628 10.6148 16.1891C9.45376 16.7893 8.10049 16.2764 6.93994 15.9414C5.89937 15.5368 4.37453 15.1292 5.27176 14.5123L5.27186 14.5121Z" fill="#F8F8F8"/>
</svg>
