<svg width="30" height="30" viewBox="0 0 30 30" fill="none" xmlns="http://www.w3.org/2000/svg">
<rect width="30" height="30" rx="5" fill="#FF0000"/>
<path d="M23.6238 10.1861C23.4168 9.3256 22.8069 8.64795 22.0324 8.41797C20.6288 8 15 8 15 8C15 8 9.37122 8 7.96752 8.41797C7.19301 8.64795 6.58306 9.3256 6.37606 10.1861C6 11.7458 6 15 6 15C6 15 6 18.2541 6.37606 19.8139C6.58306 20.6744 7.19301 21.352 7.96752 21.5821C9.37122 22 15 22 15 22C15 22 20.6288 22 22.0324 21.5821C22.8069 21.352 23.4168 20.6744 23.6238 19.8139C24 18.2541 24 15 24 15C24 15 24 11.7458 23.6238 10.1861Z" fill="white"/>
<path d="M14 18V12L18 15.0001L14 18Z" fill="#FF0000"/>
</svg>
